<svg width="16" height="16" viewBox="0 0 16 16" fill="none" xmlns="http://www.w3.org/2000/svg">
<path d="M11.9375 3.35949L7.99996 7.29699L4.06246 3.35949C3.95812 3.26582 3.84096 3.21899 3.71096 3.21899C3.58096 3.21899 3.46629 3.26849 3.36696 3.36749C3.26762 3.46649 3.21812 3.58116 3.21846 3.71149C3.21879 3.84182 3.26562 3.95899 3.35896 4.06299L7.29646 8.00049L3.35896 11.938C3.22362 12.0733 3.17929 12.2348 3.22596 12.4225C3.27262 12.6102 3.38729 12.7273 3.56996 12.774C3.75262 12.8207 3.91662 12.7763 4.06196 12.641L7.99946 8.70349L11.937 12.641C12.0413 12.7347 12.1585 12.7815 12.2885 12.7815C12.4185 12.7815 12.5331 12.732 12.6325 12.633C12.7318 12.534 12.7813 12.4193 12.781 12.289C12.7806 12.1587 12.7338 12.0415 12.6405 11.9375L8.70296 7.99999L12.6405 4.06249C12.7758 3.92716 12.8201 3.76566 12.7735 3.57799C12.7268 3.39032 12.6096 3.27316 12.422 3.22649C12.2343 3.17982 12.0728 3.22416 11.9375 3.35949Z" fill="#303133"/>
</svg>
