<svg width="16" height="16" viewBox="0 0 16 16" fill="none" xmlns="http://www.w3.org/2000/svg">
<path d="M4.51538 4.64047H5.96838C6.11438 4.64047 6.23421 4.6873 6.32788 4.78097C6.42155 4.87463 6.46838 4.9918 6.46838 5.13247C6.46838 5.27313 6.42155 5.3903 6.32788 5.48397C6.23421 5.57763 6.11438 5.6298 5.96838 5.64047H3.64038C3.49438 5.63013 3.37455 5.57797 3.28088 5.48397C3.18721 5.38997 3.14038 5.2753 3.14038 5.13997V2.81197C3.14038 2.66597 3.18721 2.54613 3.28088 2.45247C3.37455 2.3588 3.49438 2.31197 3.64038 2.31197C3.78638 2.31197 3.90621 2.3588 3.99988 2.45247C4.09355 2.54613 4.14038 2.66597 4.14038 2.81197V3.59347C5.03638 2.79147 6.05988 2.29413 7.21088 2.10147C8.36188 1.9088 9.49471 2.0468 10.6094 2.51547C11.7137 3.01547 12.586 3.75513 13.2264 4.73447C13.8667 5.7138 14.1922 6.80763 14.2029 8.01597C14.1612 9.71397 13.5752 11.128 12.4449 12.258C11.3145 13.388 9.90055 13.974 8.20288 14.016C6.50488 13.9743 5.09088 13.3883 3.96088 12.258C2.83088 11.1276 2.24488 9.71363 2.20288 8.01597H3.20288C3.23421 9.43263 3.72121 10.6123 4.66388 11.555C5.60655 12.4976 6.78621 12.9846 8.20288 13.016C9.61955 12.9846 10.7967 12.4976 11.7344 11.555C12.672 10.6123 13.1617 9.43263 13.2034 8.01597C13.193 6.96397 12.9014 6.0238 12.3284 5.19547C11.7554 4.36713 10.9845 3.75513 10.0159 3.35947C9.03655 2.9948 8.05471 2.92447 7.07038 3.14847C6.08605 3.37247 5.23455 3.8698 4.51588 4.64047H4.51538Z" fill="#303133"/>
</svg>
